<svg width="23" height="23" viewBox="0 0 23 23" fill="none" xmlns="http://www.w3.org/2000/svg">
<g clip-path="url(#clip0_18_75)">
<path d="M20.8838 17.9242C20.536 18.7278 20.1243 19.4675 19.6472 20.1475C18.997 21.0746 18.4646 21.7163 18.0543 22.0726C17.4183 22.6575 16.7368 22.9571 16.0071 22.9741C15.4832 22.9741 14.8515 22.8251 14.1161 22.5227C13.3782 22.2217 12.7002 22.0726 12.0802 22.0726C11.43 22.0726 10.7326 22.2217 9.98669 22.5227C9.23964 22.8251 8.63783 22.9827 8.1777 22.9983C7.47792 23.0281 6.78042 22.72 6.0842 22.0726C5.63983 21.685 5.08401 21.0206 4.41817 20.0794C3.70377 19.0742 3.11644 17.9086 2.65631 16.5798C2.16353 15.1444 1.9165 13.7545 1.9165 12.4089C1.9165 10.8676 2.24957 9.53814 2.91669 8.4241C3.44099 7.52926 4.13849 6.82337 5.01147 6.30518C5.88444 5.78699 6.8277 5.52292 7.8435 5.50603C8.39932 5.50603 9.12819 5.67795 10.034 6.01584C10.9372 6.35487 11.5171 6.5268 11.7714 6.5268C11.9615 6.5268 12.6058 6.32577 13.6979 5.92498C14.7308 5.5533 15.6025 5.39941 16.3166 5.46003C18.2517 5.6162 19.7054 6.37901 20.6723 7.75329C18.9416 8.80188 18.0856 10.2706 18.1026 12.1547C18.1182 13.6222 18.6506 14.8435 19.6969 15.8131C20.1711 16.2632 20.7007 16.611 21.2898 16.858C21.1621 17.2286 21.0272 17.5835 20.8838 17.9242V17.9242ZM16.4458 0.460375C16.4458 1.61064 16.0256 2.68464 15.1879 3.67872C14.1771 4.86048 12.9544 5.54336 11.6286 5.43561C11.6117 5.29761 11.6019 5.15238 11.6019 4.99976C11.6019 3.89551 12.0826 2.71374 12.9363 1.74748C13.3625 1.25825 13.9045 0.851463 14.5618 0.526959C15.2177 0.207297 15.8382 0.030517 16.4217 0.000244141C16.4387 0.154016 16.4458 0.307798 16.4458 0.46036V0.460375Z" fill="black"/>
</g>
<defs>
<clipPath id="clip0_18_75">
<rect width="23" height="23" fill="white"/>
</clipPath>
</defs>
</svg>
